<svg width="200" height="200" viewBox="0 0 200 200" fill="none" xmlns="http://www.w3.org/2000/svg">
  <!-- Lotus Petals (Back Rank) -->
  <g class="lotus-petals-back">
    <path d="M100 20 C110 50 130 70 160 100 C130 130 110 150 100 180 C90 150 70 130 40 100 C70 70 90 50 100 20Z" fill="url(#goldGradient)" fill-opacity="0.2" />
    <path d="M100 20 C110 50 130 70 160 100 C130 130 110 150 100 180 C90 150 70 130 40 100 C70 70 90 50 100 20Z" transform="rotate(40 100 100)" fill="url(#goldGradient)" fill-opacity="0.2" />
    <path d="M100 20 C110 50 130 70 160 100 C130 130 110 150 100 180 C90 150 70 130 40 100 C70 70 90 50 100 20Z" transform="rotate(80 100 100)" fill="url(#goldGradient)" fill-opacity="0.2" />
    <path d="M100 20 C110 50 130 70 160 100 C130 130 110 150 100 180 C90 150 70 130 40 100 C70 70 90 50 100 20Z" transform="rotate(120 100 100)" fill="url(#goldGradient)" fill-opacity="0.2" />
    <path d="M100 20 C110 50 130 70 160 100 C130 130 110 150 100 180 C90 150 70 130 40 100 C70 70 90 50 100 20Z" transform="rotate(160 100 100)" fill="url(#goldGradient)" fill-opacity="0.2" />
    <path d="M100 20 C110 50 130 70 160 100 C130 130 110 150 100 180 C90 150 70 130 40 100 C70 70 90 50 100 20Z" transform="rotate(200 100 100)" fill="url(#goldGradient)" fill-opacity="0.2" />
    <path d="M100 20 C110 50 130 70 160 100 C130 130 110 150 100 180 C90 150 70 130 40 100 C70 70 90 50 100 20Z" transform="rotate(240 100 100)" fill="url(#goldGradient)" fill-opacity="0.2" />
    <path d="M100 20 C110 50 130 70 160 100 C130 130 110 150 100 180 C90 150 70 130 40 100 C70 70 90 50 100 20Z" transform="rotate(280 100 100)" fill="url(#goldGradient)" fill-opacity="0.2" />
    <path d="M100 20 C110 50 130 70 160 100 C130 130 110 150 100 180 C90 150 70 130 40 100 C70 70 90 50 100 20Z" transform="rotate(320 100 100)" fill="url(#goldGradient)" fill-opacity="0.2" />
  </g>

  <!-- 9-Pointed Star (Primary Frame) -->
  <path d="M100 10 L115.4 72.8 L184.2 46.9 L143.1 101.4 L198.5 142.1 L129.4 135.2 L131.6 195.4 L100 145.6 L68.4 195.4 L70.6 135.2 L1.5 142.1 L56.9 101.4 L15.8 46.9 L84.6 72.8 Z" 
        stroke="url(#goldGradient)" stroke-width="2" stroke-linejoin="round" fill="none" />

  <!-- Inner Lotus (Front Rank) -->
  <g class="lotus-petals-front">
    <path d="M100 50 C105 65 115 75 130 90 C115 105 105 115 100 130 C95 115 85 105 70 90 C85 75 95 65 100 50Z" fill="url(#goldGradient)" fill-opacity="0.6" />
    <path d="M100 50 C105 65 115 75 130 90 C115 105 105 115 100 130 C95 115 85 105 70 90 C85 75 95 65 100 50Z" transform="rotate(40 100 100)" fill="url(#goldGradient)" fill-opacity="0.6" />
    <path d="M100 50 C105 65 115 75 130 90 C115 105 105 115 100 130 C95 115 85 105 70 90 C85 75 95 65 100 50Z" transform="rotate(80 100 100)" fill="url(#goldGradient)" fill-opacity="0.6" />
    <path d="M100 50 C105 65 115 75 130 90 C115 105 105 115 100 130 C95 115 85 105 70 90 C85 75 95 65 100 50Z" transform="rotate(120 100 100)" fill="url(#goldGradient)" fill-opacity="0.6" />
    <path d="M100 50 C105 65 115 75 130 90 C115 105 105 115 100 130 C95 115 85 105 70 90 C85 75 95 65 100 50Z" transform="rotate(160 100 100)" fill="url(#goldGradient)" fill-opacity="0.6" />
    <path d="M100 50 C105 65 115 75 130 90 C115 105 105 115 100 130 C95 115 85 105 70 90 C85 75 95 65 100 50Z" transform="rotate(200 100 100)" fill="url(#goldGradient)" fill-opacity="0.6" />
    <path d="M100 50 C105 65 115 75 130 90 C115 105 105 115 100 130 C95 115 85 105 70 90 C85 75 95 65 100 50Z" transform="rotate(240 100 100)" fill="url(#goldGradient)" fill-opacity="0.6" />
    <path d="M100 50 C105 65 115 75 130 90 C115 105 105 115 100 130 C95 115 85 105 70 90 C85 75 95 65 100 50Z" transform="rotate(280 100 100)" fill="url(#goldGradient)" fill-opacity="0.6" />
    <path d="M100 50 C105 65 115 75 130 90 C115 105 105 115 100 130 C95 115 85 105 70 90 C85 75 95 65 100 50Z" transform="rotate(320 100 100)" fill="url(#goldGradient)" fill-opacity="0.6" />
  </g>

  <!-- Central Star Hub -->
  <circle cx="100" cy="100" r="10" stroke="url(#goldGradient)" stroke-width="0.5" fill="none" />
  
  <defs>
    <linearGradient id="goldGradient" x1="0%" y1="0%" x2="100%" y2="100%">
      <stop offset="0%" style="stop-color:#FFD700;stop-opacity:1" />
      <stop offset="50%" style="stop-color:#FDB931;stop-opacity:1" />
      <stop offset="100%" style="stop-color:#C5A021;stop-opacity:1" />
    </linearGradient>
  </defs>
</svg>
