<svg xmlns="http://www.w3.org/2000/svg" viewBox="0 0 560 320" fill="none">
  <defs>
    <linearGradient id="goldGrad" x1="0%" y1="0%" x2="0%" y2="100%">
      <stop offset="0%" stop-color="#D4AE3A"/>
      <stop offset="100%" stop-color="#A8861C"/>
    </linearGradient>
    <linearGradient id="blueWingL" x1="100%" y1="0%" x2="0%" y2="0%">
      <stop offset="0%" stop-color="#3A7FBE"/>
      <stop offset="100%" stop-color="#1A4E8A"/>
    </linearGradient>
    <linearGradient id="blueWingR" x1="0%" y1="0%" x2="100%" y2="0%">
      <stop offset="0%" stop-color="#3A7FBE"/>
      <stop offset="100%" stop-color="#1A4E8A"/>
    </linearGradient>
  </defs>
  <g transform="translate(280,110)" stroke-linejoin="round">
    <polygon points="0,-88 76.2,44 -76.2,44" fill="none" stroke="url(#goldGrad)" stroke-width="3"/>
    <polygon points="0,-88 76.2,44 -76.2,44" fill="none" stroke="url(#goldGrad)" stroke-width="3" transform="rotate(40)"/>
    <polygon points="0,-88 76.2,44 -76.2,44" fill="none" stroke="url(#goldGrad)" stroke-width="3" transform="rotate(80)"/>
    <circle cx="0" cy="0" r="56" fill="none" stroke="#C5A028" stroke-width="1" opacity="0.35"/>
  </g>
  <g transform="translate(280,210)">
    <path d="M -24,0 C -65,-28 -130,-48 -195,-38 C -228,-32 -250,-16 -252,0 C -240,-18 -215,-30 -185,-32 C -145,-36 -100,-22 -60,-4 C -44,2 -32,6 -24,10" fill="none" stroke="url(#blueWingL)" stroke-width="3" stroke-linecap="round"/>
    <path d="M -24,2 C -60,-16 -115,-32 -170,-26 C -200,-22 -220,-10 -224,2 C -210,-10 -188,-18 -160,-20 C -125,-22 -86,-10 -54,6 C -40,12 -30,14 -24,16" fill="none" stroke="#3A7FBE" stroke-width="2" stroke-linecap="round"/>
    <path d="M -24,-4 C -70,-22 -130,-34 -185,-26 L -180,-14 C -128,-22 -68,-10 -24,6 Z" fill="url(#goldGrad)"/>
    <path d="M -24,8 C -65,4 -118,2 -168,16 L -163,26 C -115,12 -64,14 -24,18 Z" fill="url(#goldGrad)" opacity="0.85"/>
    <line x1="-24" y1="-2" x2="-70" y2="-34" stroke="#1A4E8A" stroke-width="1.8" stroke-linecap="round"/>
    <line x1="-24" y1="0" x2="-88" y2="-26" stroke="#1A4E8A" stroke-width="1.8" stroke-linecap="round"/>
    <line x1="-24" y1="2" x2="-105" y2="-18" stroke="#1A4E8A" stroke-width="1.8" stroke-linecap="round"/>
    <line x1="-24" y1="4" x2="-120" y2="-10" stroke="#1A4E8A" stroke-width="1.8" stroke-linecap="round"/>
    <line x1="-24" y1="6" x2="-133" y2="-2" stroke="#1A4E8A" stroke-width="1.8" stroke-linecap="round"/>
    <line x1="-24" y1="8" x2="-144" y2="6" stroke="#1A4E8A" stroke-width="1.8" stroke-linecap="round"/>
    <line x1="-24" y1="10" x2="-153" y2="15" stroke="#1A4E8A" stroke-width="1.8" stroke-linecap="round"/>
    <line x1="-24" y1="12" x2="-160" y2="25" stroke="#1A4E8A" stroke-width="1.8" stroke-linecap="round"/>
    <line x1="-24" y1="1" x2="-79" y2="-20" stroke="#9AC9E8" stroke-width="1" stroke-linecap="round" opacity="0.7"/>
    <line x1="-24" y1="3" x2="-96" y2="-12" stroke="#9AC9E8" stroke-width="1" stroke-linecap="round" opacity="0.7"/>
    <line x1="-24" y1="5" x2="-112" y2="-4" stroke="#9AC9E8" stroke-width="1" stroke-linecap="round" opacity="0.7"/>
    <line x1="-24" y1="7" x2="-126" y2="4" stroke="#9AC9E8" stroke-width="1" stroke-linecap="round" opacity="0.7"/>
    <line x1="-24" y1="9" x2="-138" y2="12" stroke="#9AC9E8" stroke-width="1" stroke-linecap="round" opacity="0.7"/>
    <line x1="-24" y1="11" x2="-148" y2="21" stroke="#9AC9E8" stroke-width="1" stroke-linecap="round" opacity="0.7"/>
    <path d="M -24,-8 C -80,-38 -158,-56 -222,-38 C -244,-30 -256,-14 -254,-2" fill="none" stroke="#1A4E8A" stroke-width="3.5" stroke-linecap="round"/>
    <path d="M -24,-2 C -44,-14 -60,-18 -80,-12 L -76,-4 C -57,-10 -42,-6 -24,8 Z" fill="#C5A028"/>
  </g>
  <g transform="translate(280,210) scale(-1,1)">
    <path d="M -24,0 C -65,-28 -130,-48 -195,-38 C -228,-32 -250,-16 -252,0 C -240,-18 -215,-30 -185,-32 C -145,-36 -100,-22 -60,-4 C -44,2 -32,6 -24,10" fill="none" stroke="url(#blueWingR)" stroke-width="3" stroke-linecap="round"/>
    <path d="M -24,2 C -60,-16 -115,-32 -170,-26 C -200,-22 -220,-10 -224,2 C -210,-10 -188,-18 -160,-20 C -125,-22 -86,-10 -54,6 C -40,12 -30,14 -24,16" fill="none" stroke="#3A7FBE" stroke-width="2" stroke-linecap="round"/>
    <path d="M -24,-4 C -70,-22 -130,-34 -185,-26 L -180,-14 C -128,-22 -68,-10 -24,6 Z" fill="url(#goldGrad)"/>
    <path d="M -24,8 C -65,4 -118,2 -168,16 L -163,26 C -115,12 -64,14 -24,18 Z" fill="url(#goldGrad)" opacity="0.85"/>
    <line x1="-24" y1="-2" x2="-70" y2="-34" stroke="#1A4E8A" stroke-width="1.8" stroke-linecap="round"/>
    <line x1="-24" y1="0" x2="-88" y2="-26" stroke="#1A4E8A" stroke-width="1.8" stroke-linecap="round"/>
    <line x1="-24" y1="2" x2="-105" y2="-18" stroke="#1A4E8A" stroke-width="1.8" stroke-linecap="round"/>
    <line x1="-24" y1="4" x2="-120" y2="-10" stroke="#1A4E8A" stroke-width="1.8" stroke-linecap="round"/>
    <line x1="-24" y1="6" x2="-133" y2="-2" stroke="#1A4E8A" stroke-width="1.8" stroke-linecap="round"/>
    <line x1="-24" y1="8" x2="-144" y2="6" stroke="#1A4E8A" stroke-width="1.8" stroke-linecap="round"/>
    <line x1="-24" y1="10" x2="-153" y2="15" stroke="#1A4E8A" stroke-width="1.8" stroke-linecap="round"/>
    <line x1="-24" y1="12" x2="-160" y2="25" stroke="#1A4E8A" stroke-width="1.8" stroke-linecap="round"/>
    <line x1="-24" y1="1" x2="-79" y2="-20" stroke="#9AC9E8" stroke-width="1" stroke-linecap="round" opacity="0.7"/>
    <line x1="-24" y1="3" x2="-96" y2="-12" stroke="#9AC9E8" stroke-width="1" stroke-linecap="round" opacity="0.7"/>
    <line x1="-24" y1="5" x2="-112" y2="-4" stroke="#9AC9E8" stroke-width="1" stroke-linecap="round" opacity="0.7"/>
    <line x1="-24" y1="7" x2="-126" y2="4" stroke="#9AC9E8" stroke-width="1" stroke-linecap="round" opacity="0.7"/>
    <line x1="-24" y1="9" x2="-138" y2="12" stroke="#9AC9E8" stroke-width="1" stroke-linecap="round" opacity="0.7"/>
    <line x1="-24" y1="11" x2="-148" y2="21" stroke="#9AC9E8" stroke-width="1" stroke-linecap="round" opacity="0.7"/>
    <path d="M -24,-8 C -80,-38 -158,-56 -222,-38 C -244,-30 -256,-14 -254,-2" fill="none" stroke="#1A4E8A" stroke-width="3.5" stroke-linecap="round"/>
    <path d="M -24,-2 C -44,-14 -60,-18 -80,-12 L -76,-4 C -57,-10 -42,-6 -24,8 Z" fill="#C5A028"/>
  </g>
  <g transform="translate(280,232)" stroke-linecap="round">
    <line x1="-16" y1="0" x2="-22" y2="36" stroke="#3A7FBE" stroke-width="1.8"/>
    <line x1="-8" y1="0" x2="-10" y2="40" stroke="#3A7FBE" stroke-width="1.8"/>
    <line x1="0" y1="0" x2="0" y2="42" stroke="#3A7FBE" stroke-width="1.8"/>
    <line x1="8" y1="0" x2="10" y2="40" stroke="#3A7FBE" stroke-width="1.8"/>
    <line x1="16" y1="0" x2="22" y2="36" stroke="#3A7FBE" stroke-width="1.8"/>
  </g>
  <circle cx="280" cy="210" r="25" fill="#FFFFFF" stroke="#1A4E8A" stroke-width="3"/>
  <circle cx="280" cy="210" r="17" fill="#FFFFFF" stroke="#3A7FBE" stroke-width="1.5"/>
  <circle cx="280" cy="210" r="7" fill="url(#goldGrad)"/>
  <circle cx="277" cy="207" r="2.5" fill="#FFFFFF" opacity="0.5"/>
</svg>